Coordinates
version=1
nRows=4
nColumns=63
inDegrees=yes

Units are S.I. units (second, meters, Newtons, ...)
If the header above contains a line with 'inDegrees', this indicates whether rotational values are in degrees (yes) or radians (no).

endheader
time	pelvis_tilt	pelvis_list	pelvis_rotation	pelvis_tx	pelvis_ty	pelvis_tz	hip_flexion_r	hip_adduction_r	hip_rotation_r	knee_angle_r	knee_angle_r_beta	ankle_angle_r	subtalar_angle_r	mtp_angle_r	hip_flexion_l	hip_adduction_l	hip_rotation_l	knee_angle_l	knee_angle_l_beta	ankle_angle_l	subtalar_angle_l	mtp_angle_l	L5_S1_Flex_Ext	L5_S1_Lat_Bending	L5_S1_axial_rotation	L4_L5_Flex_Ext	L4_L5_Lat_Bending	L4_L5_axial_rotation	L3_L4_Flex_Ext	L3_L4_Lat_Bending	L3_L4_axial_rotation	L2_L3_Flex_Ext	L2_L3_Lat_Bending	L2_L3_axial_rotation	L1_L2_Flex_Ext	L1_L2_Lat_Bending	L1_L2_axial_rotation	L1_T12_Flex_Ext	L1_T12_Lat_Bending	L1_T12_axial_rotation	Abs_r3	Abs_r2	Abs_r1	Abs_t1	Abs_t2	neck_flexion	neck_bending	neck_rotation	arm_flex_r	arm_add_r	arm_rot_r	elbow_flex_r	pro_sup_r	wrist_flex_r	wrist_dev_r	arm_flex_l	arm_add_l	arm_rot_l	elbow_flex_l	pro_sup_l	wrist_flex_l	wrist_dev_l
      1.44000000	     -2.49330650	     -3.08745687	     92.67387127	      0.23224366	      0.75297399	      0.61850275	     -4.39204597	     -1.55827708	      2.31196421	      1.58563325	      0.02767452	     19.83339146	     -0.17098608	      0.00000000	     -1.78528784	      1.45059081	     -4.49907480	      4.30101251	      0.07506683	     21.93752725	      3.79164096	      0.00000000	     -0.12356700	      0.12851832	      0.10517276	     -0.22947628	      0.17092937	      0.11174606	     -0.20300823	      0.31247946	      0.11174606	     -0.14122473	      0.31247946	      0.09202617	     -0.11474432	      0.26207457	      0.08545287	     -0.07060619	      0.19907489	      0.07887957	     -0.88262674	      1.45382500	      0.58493936	      0.00000000	      0.00000000	     13.14377095	     -3.31439287	      6.81138866	     13.26911448	    -10.13915080	    122.10500050	     12.73042095	      7.09612022	      4.16606994	      1.60590371	      4.52832242	    -15.02824856	     58.88537629	     25.78509950	     78.18659695	     -4.78106251	      2.50470980
      1.46000000	     -2.46388291	     -3.05721853	     92.82307038	      0.23193155	      0.75374015	      0.61838943	     -4.45196270	     -1.53168823	      2.34649340	      1.54418154	      0.02695105	     19.91417303	     -0.17647035	      0.00000000	     -1.80157806	      1.42021828	     -4.47421005	      4.30902477	      0.07520667	     21.76808084	      3.83762935	      0.00000000	     -0.11665392	      0.13441272	      0.12115528	     -0.21663799	      0.17876892	      0.12872749	     -0.19165072	      0.32681109	      0.12872749	     -0.13332376	      0.32681109	      0.10601087	     -0.10832483	      0.27409442	      0.09843867	     -0.06665605	      0.20820531	      0.09086646	     -0.83324725	      1.52050358	      0.67382933	      0.00000000	      0.00000000	     12.84734689	     -3.33547079	      6.79057814	     13.49368714	    -10.01461335	    122.05791503	     12.65181972	      7.05617556	      4.21436955	      1.62644375	      5.07688605	    -14.88573062	     58.82139912	     26.27259622	     78.26035599	     -4.75016823	      2.37637177
      1.48000000	     -2.56746875	     -2.72100281	     92.99136565	      0.23212954	      0.75451354	      0.61752335	     -4.98065683	     -1.54249074	      3.89156711	      1.36196885	      0.02377084	     19.45858243	     -2.62416239	      0.00000000	     -2.27308598	      1.46329014	     -4.26999728	      4.15204762	      0.07246690	     21.53271188	      3.97121752	      0.00000000	     -0.14114511	      0.11119440	      0.06445849	     -0.26212059	      0.14788856	      0.06848715	     -0.23188731	      0.27035808	      0.06848715	     -0.16131475	      0.27035808	      0.05640118	     -0.13106735	      0.22674763	      0.05237252	     -0.08065032	      0.17224013	      0.04834387	     -1.00818544	      1.25785335	      0.35849879	      0.00000000	      0.00000000	     12.07404151	     -3.26910299	      6.23202295	     13.46335433	     -9.39310830	    123.88749488	     11.68765891	      5.76885300	      5.16871318	      1.30385155	      4.71656472	    -15.31717479	     55.03371485	     28.10711531	     83.05666764	     -3.42805877	      3.64292327
      1.50000000	     -2.55691136	     -2.69693465	     92.90742733	      0.23161248	      0.75489939	      0.61784333	     -4.99396805	     -1.57941239	      3.97804092	      1.38248668	      0.02412894	     19.42806914	     -2.57945165	      0.00000000	     -2.28033860	      1.49186305	     -4.31819354	      4.13015886	      0.07208487	     21.49393539	      3.94685193	      0.00000000	     -0.13922990	      0.11903722	      0.02238999	     -0.25856384	      0.15831951	      0.02378936	     -0.22874080	      0.28942711	      0.02378936	     -0.15912585	      0.28942711	      0.01959124	     -0.12928888	      0.24274071	      0.01819187	     -0.07955596	      0.18438866	      0.01679249	     -0.99450523	      1.34657288	      0.12452639	      0.00000000	      0.00000000	     11.91603594	     -3.28247059	      6.24613739	     13.53299881	     -9.32745310	    123.85337944	     11.50291658	      5.75039881	      5.11302435	      1.18787655	      5.16068880	    -15.16551662	     54.88367159	     28.42330454	     82.98478570	     -3.39025250	      3.58182043
